<svg width="182" height="46" viewBox="0 0 182 46" fill="none" xmlns="http://www.w3.org/2000/svg">
<mask id="path-1-inside-1_1_30" fill="white">
<path fill-rule="evenodd" clip-rule="evenodd" d="M178.255 43.1323L178.252 43.1701C178.179 44.0126 177.774 44.7485 177.179 45.2574C176.58 45.7681 175.791 46.0535 174.949 45.9916C174.935 45.9916 174.918 45.9899 174.904 45.9882C174.062 45.9159 173.326 45.5102 172.817 44.9153C172.301 44.3118 172.015 43.514 172.083 42.6629L172.248 40.6203C170.25 38.6224 157.379 25.7532 157.379 25.7532L155.336 25.9183C154.483 25.9836 153.686 25.6999 153.084 25.1841C152.482 24.6683 152.075 23.9238 152.009 23.0744C151.944 22.2216 152.228 21.4239 152.743 20.8221C153.259 20.2203 154.004 19.8128 154.853 19.7475L155.77 19.6735L155.752 19.1835H155.751V19.1595C155.733 18.3204 156.048 17.5536 156.579 16.9827C157.119 16.405 157.877 16.0319 158.73 16.0027H158.746V16.001H158.77C159.609 15.9804 160.376 16.2984 160.946 16.8297C161.524 17.3696 161.897 18.1278 161.927 18.9824L162.026 21.6405C163.845 23.463 174.54 34.1538 176.362 35.978L179.02 36.0778C179.873 36.1087 180.633 36.4801 181.171 37.0578C181.709 37.6355 182.027 38.4195 181.998 39.2723C181.967 40.1251 181.596 40.8851 181.018 41.4233C180.44 41.9614 179.656 42.2795 178.804 42.2503L178.331 42.2331L178.255 43.1323ZM172.579 39.7073L173.014 40.1423C173.102 40.23 173.152 40.3555 173.143 40.4896L172.963 42.7334C172.915 43.3438 173.119 43.9129 173.486 44.3427C173.853 44.7726 174.385 45.0631 174.993 45.1113C175.6 45.1594 176.171 44.9565 176.603 44.5903C177.027 44.2258 177.316 43.6997 177.37 43.0979L177.478 41.7431H177.48C177.497 41.5075 177.698 41.327 177.935 41.3356L178.831 41.37C179.44 41.3923 179.998 41.1636 180.411 40.7785C180.824 40.3934 181.092 39.8518 181.111 39.2448C181.133 38.6379 180.905 38.0774 180.519 37.6647C180.134 37.2521 179.593 36.9856 178.984 36.965L176.183 36.8584C176.065 36.8618 175.944 36.8205 175.853 36.7294L175.705 36.5815C173.853 34.7263 163.127 23.9977 161.273 22.1443L161.275 22.1425C161.199 22.0669 161.151 21.962 161.146 21.8451L161.039 19.0133C161.017 18.4064 160.752 17.8613 160.34 17.4796C159.934 17.0997 159.387 16.8762 158.79 16.8882C158.775 16.8899 158.758 16.8899 158.742 16.8899V16.8882C158.14 16.914 157.606 17.1788 157.222 17.588C156.846 17.9937 156.619 18.5405 156.631 19.1371C156.633 19.1526 156.633 19.1698 156.633 19.1853H156.631L156.665 20.0484C156.686 20.2908 156.502 20.5057 156.258 20.5229L154.92 20.6312C154.31 20.6794 153.778 20.9682 153.412 21.3998C153.043 21.8296 152.841 22.3987 152.89 23.0091C152.938 23.6195 153.227 24.1508 153.658 24.517C154.088 24.8849 154.659 25.0861 155.267 25.0414L157.496 24.8626C157.626 24.8471 157.761 24.8884 157.859 24.9898C159.807 26.9344 172.579 39.7073 172.579 39.7073Z"/>
<path d="M172.579 39.7073L173.014 40.1423C173.102 40.23 173.152 40.3555 173.143 40.4896L172.963 42.7334C172.915 43.3438 173.119 43.9129 173.486 44.3427C173.853 44.7726 174.385 45.0631 174.993 45.1113C175.6 45.1594 176.171 44.9565 176.603 44.5903C177.027 44.2258 177.316 43.6997 177.37 43.0979L177.478 41.7431H177.48C177.497 41.5075 177.698 41.327 177.935 41.3356L178.831 41.37C179.44 41.3923 179.998 41.1636 180.411 40.7785C180.824 40.3934 181.092 39.8518 181.111 39.2448C181.133 38.6379 180.905 38.0774 180.519 37.6647C180.134 37.2521 179.593 36.9856 178.984 36.965L176.183 36.8584C176.065 36.8618 175.944 36.8205 175.853 36.7294L175.705 36.5815C173.853 34.7263 163.127 23.9977 161.273 22.1443L161.275 22.1425C161.199 22.0669 161.151 21.962 161.146 21.8451L161.039 19.0133C161.017 18.4064 160.752 17.8613 160.34 17.4796C159.934 17.0997 159.387 16.8762 158.79 16.8882C158.775 16.8899 158.758 16.8899 158.742 16.8899V16.8882C158.14 16.914 157.606 17.1788 157.222 17.588C156.846 17.9937 156.619 18.5405 156.631 19.1371C156.633 19.1526 156.633 19.1698 156.633 19.1853H156.631L156.665 20.0484C156.686 20.2908 156.502 20.5057 156.258 20.5229L154.92 20.6312C154.31 20.6794 153.778 20.9682 153.412 21.3998C153.043 21.8296 152.841 22.3987 152.89 23.0091C152.938 23.6195 153.227 24.1508 153.658 24.517C154.088 24.8849 154.659 25.0861 155.267 25.0414L157.496 24.8626C157.626 24.8471 157.761 24.8884 157.859 24.9898C159.807 26.9344 172.579 39.7073 172.579 39.7073Z"/>
<path fill-rule="evenodd" clip-rule="evenodd" d="M154.868 42.2551L154.83 42.2517C153.988 42.1795 153.252 41.7737 152.743 41.1788C152.232 40.5804 151.947 39.7913 152.009 38.9488C152.009 38.935 152.01 38.9178 152.012 38.9041C152.084 38.0616 152.49 37.3257 153.085 36.8168C153.688 36.301 154.486 36.0155 155.337 36.0826L157.38 36.2477C159.378 34.2498 170.249 23.3767 172.247 21.3788L172.082 19.3362C172.016 18.4834 172.3 17.6856 172.816 17.0839C173.332 16.4821 174.076 16.0746 174.926 16.0093C175.778 15.9439 176.576 16.2276 177.178 16.7434C177.78 17.2592 178.187 18.0037 178.253 18.8531L178.327 19.7695L178.817 19.7523V19.7506H178.841C179.68 19.7334 180.446 20.048 181.017 20.5793C181.595 21.1192 181.968 21.8774 181.997 22.7302V22.7457H181.999V22.7698C182.02 23.6088 181.702 24.3757 181.17 24.9465C180.63 25.5242 179.872 25.8973 179.018 25.9265L176.36 26.0263C174.537 27.8453 163.846 38.5396 162.022 40.3621L161.922 43.0202C161.891 43.873 161.52 44.633 160.942 45.1711C160.365 45.7093 159.581 46.0274 158.728 45.9981C157.875 45.9672 157.115 45.5958 156.577 45.0181C156.039 44.4404 155.721 43.6564 155.75 42.8036L155.767 42.3307L154.868 42.2551ZM158.293 36.5795L157.858 37.0145C157.77 37.1022 157.645 37.152 157.51 37.1434L155.267 36.9629C154.656 36.9148 154.087 37.1194 153.657 37.4856C153.228 37.8535 152.937 38.3848 152.889 38.9935C152.841 39.6004 153.044 40.1712 153.41 40.6028C153.774 41.0275 154.3 41.3163 154.902 41.3696L156.257 41.478V41.4797C156.493 41.4969 156.673 41.698 156.665 41.9353L156.63 42.8311C156.608 43.4397 156.836 43.9985 157.222 44.4112C157.607 44.8238 158.148 45.092 158.755 45.111C159.362 45.1333 159.923 44.9046 160.335 44.5195C160.748 44.1344 161.015 43.5928 161.035 42.9841L161.142 40.1833C161.138 40.0646 161.18 39.9443 161.271 39.8531L161.419 39.7053C163.274 37.8535 174.002 27.1267 175.856 25.2732L175.858 25.2749C175.933 25.1992 176.038 25.1511 176.155 25.1459L178.987 25.0393C179.594 25.017 180.139 24.7522 180.52 24.3396C180.9 23.9338 181.124 23.387 181.112 22.7904C181.11 22.775 181.11 22.7578 181.11 22.7423H181.112C181.086 22.1405 180.821 21.6058 180.412 21.2224C180.006 20.8458 179.46 20.6189 178.863 20.6309C178.847 20.6326 178.83 20.6326 178.815 20.6326V20.6309L177.952 20.6653C177.709 20.6859 177.494 20.502 177.477 20.2578L177.369 18.9201C177.321 18.3098 177.032 17.7785 176.6 17.4123C176.17 17.0426 175.601 16.8414 174.991 16.8896C174.381 16.9377 173.849 17.2266 173.483 17.6581C173.115 18.088 172.914 18.6588 172.959 19.2675L173.137 21.4957C173.153 21.6264 173.112 21.7605 173.01 21.8585C171.066 23.8066 160.243 34.6315 158.293 36.5795Z"/>
<path d="M158.293 36.5795L157.858 37.0145C157.77 37.1022 157.645 37.152 157.51 37.1434L155.267 36.9629C154.656 36.9148 154.087 37.1194 153.657 37.4856C153.228 37.8535 152.937 38.3848 152.889 38.9935C152.841 39.6004 153.044 40.1712 153.41 40.6028C153.774 41.0275 154.3 41.3163 154.902 41.3696L156.257 41.478V41.4797C156.493 41.4969 156.673 41.698 156.665 41.9353L156.63 42.8311C156.608 43.4397 156.836 43.9985 157.222 44.4112C157.607 44.8238 158.148 45.092 158.755 45.111C159.362 45.1333 159.923 44.9046 160.335 44.5195C160.748 44.1344 161.015 43.5928 161.035 42.9841L161.142 40.1833C161.138 40.0646 161.18 39.9443 161.271 39.8531L161.419 39.7053C163.274 37.8535 174.002 27.1267 175.856 25.2732L175.858 25.2749C175.933 25.1992 176.038 25.1511 176.155 25.1459L178.987 25.0393C179.594 25.017 180.139 24.7522 180.52 24.3396C180.9 23.9338 181.124 23.387 181.112 22.7904C181.11 22.775 181.11 22.7578 181.11 22.7423H181.112C181.086 22.1405 180.821 21.6058 180.412 21.2224C180.006 20.8458 179.46 20.6189 178.863 20.6309C178.847 20.6326 178.83 20.6326 178.815 20.6326V20.6309L177.952 20.6653C177.709 20.6859 177.494 20.502 177.477 20.2578L177.369 18.9201C177.321 18.3098 177.032 17.7785 176.6 17.4123C176.17 17.0426 175.601 16.8414 174.991 16.8896C174.381 16.9377 173.849 17.2266 173.483 17.6581C173.115 18.088 172.914 18.6588 172.959 19.2675L173.137 21.4957C173.153 21.6264 173.112 21.7605 173.01 21.8585C171.066 23.8066 160.243 34.6315 158.293 36.5795Z"/>
<path d="M12.504 46C8.856 46 6.008 45.264 3.96 43.792C1.93333 42.32 0.664001 40.048 0.152001 36.976C0.0666678 36.0373 0.258668 35.3333 0.728001 34.864C1.19733 34.3947 1.88 34.16 2.776 34.16C3.672 34.16 4.32267 34.3733 4.728 34.8C5.15467 35.2267 5.44267 35.888 5.592 36.784C5.912 38.256 6.59467 39.2693 7.64 39.824C8.70667 40.3573 10.328 40.624 12.504 40.624H21.72C24.472 40.624 26.3387 40.1333 27.32 39.152C28.3227 38.1493 28.824 36.2933 28.824 33.584C28.824 30.832 28.312 28.9547 27.288 27.952C26.264 26.928 24.408 26.416 21.72 26.416H13.784C9.752 26.416 6.75467 25.4347 4.792 23.472C2.85067 21.488 1.88 18.48 1.88 14.448C1.88 10.4373 2.84 7.46133 4.76 5.52C6.70133 3.57866 9.688 2.608 13.72 2.608H21.336C24.728 2.608 27.384 3.30133 29.304 4.688C31.2453 6.07467 32.472 8.19733 32.984 11.056C33.112 11.9733 32.9413 12.6773 32.472 13.168C32.0027 13.6373 31.2987 13.872 30.36 13.872C29.5067 13.872 28.8667 13.648 28.44 13.2C28.0133 12.752 27.736 12.1013 27.608 11.248C27.2667 9.98933 26.616 9.136 25.656 8.688C24.696 8.21866 23.256 7.984 21.336 7.984H13.72C11.16 7.984 9.44267 8.44266 8.568 9.36C7.69333 10.256 7.256 11.952 7.256 14.448C7.256 16.9653 7.704 18.6933 8.6 19.632C9.496 20.5707 11.224 21.04 13.784 21.04H21.72C25.9227 21.04 29.048 22.064 31.096 24.112C33.1653 26.16 34.2 29.3173 34.2 33.584C34.2 37.8293 33.176 40.9653 31.128 42.992C29.08 44.9973 25.944 46 21.72 46H12.504Z"/>
<path d="M48.6565 46C46.8645 46 45.9685 45.104 45.9685 43.312V3.632C45.9685 1.84 46.8645 0.943996 48.6565 0.943996C50.4485 0.943996 51.3445 1.84 51.3445 3.632V27.664L66.5765 14.576C67.9418 13.4027 69.2005 13.488 70.3525 14.832C71.5258 16.1973 71.4405 17.456 70.0965 18.608L58.4165 28.688L69.5845 41.392C70.7792 42.7787 70.7152 44.0373 69.3925 45.168C68.0272 46.3413 66.7472 46.256 65.5525 44.912L54.3205 32.24L51.3445 34.8V43.312C51.3445 45.104 50.4485 46 48.6565 46Z"/>
<path d="M81.0585 31.984V33.52C81.0585 36.272 81.5598 38.1493 82.5625 39.152C83.5652 40.1333 85.4532 40.624 88.2265 40.624H93.4745C95.6505 40.624 97.2612 40.4213 98.3065 40.016C99.3518 39.6107 100.045 38.896 100.387 37.872C100.621 37.0613 100.941 36.4427 101.347 36.016C101.773 35.5893 102.413 35.376 103.267 35.376C104.163 35.376 104.845 35.6107 105.315 36.08C105.784 36.5493 105.933 37.232 105.763 38.128C105.293 40.7733 104.035 42.7467 101.987 44.048C99.9385 45.3493 97.1012 46 93.4745 46H88.2265C83.9812 46 80.8238 44.976 78.7545 42.928C76.7065 40.88 75.6825 37.744 75.6825 33.52V26.096C75.6825 21.7653 76.7065 18.5867 78.7545 16.56C80.8238 14.512 83.9812 13.5093 88.2265 13.552H93.4745C97.7412 13.552 100.899 14.576 102.947 16.624C104.995 18.6507 106.019 21.808 106.019 26.096V29.296C106.019 31.088 105.123 31.984 103.331 31.984H81.0585ZM88.2265 18.928C85.4532 18.8853 83.5652 19.3653 82.5625 20.368C81.5598 21.3707 81.0585 23.28 81.0585 26.096V26.608H100.643V26.096C100.643 23.3013 100.141 21.4133 99.1385 20.432C98.1572 19.4293 96.2692 18.928 93.4745 18.928H88.2265Z"/>
<path d="M127.445 46C124.181 46 121.749 45.2 120.149 43.6C118.57 41.9787 117.781 39.536 117.781 36.272V3.632C117.781 1.84 118.677 0.943996 120.469 0.943996C122.261 0.943996 123.157 1.84 123.157 3.632V36.272C123.157 38 123.434 39.1627 123.989 39.76C124.565 40.336 125.717 40.624 127.445 40.624C129.28 40.624 130.197 41.52 130.197 43.312C130.261 45.104 129.344 46 127.445 46Z"/>
<path d="M141.51 8.304C139.484 8.304 138.471 7.28 138.471 5.232V3.344C138.471 1.33867 139.484 0.335999 141.51 0.335999H143.367C145.308 0.335999 146.279 1.33867 146.279 3.344V5.232C146.279 7.28 145.308 8.304 143.367 8.304H141.51ZM142.406 46C140.614 46 139.719 45.104 139.719 43.312V16.24C139.719 14.448 140.614 13.552 142.406 13.552C144.198 13.552 145.094 14.448 145.094 16.24V43.312C145.094 45.104 144.198 46 142.406 46Z"/>
</mask>
<path fill-rule="evenodd" clip-rule="evenodd" d="M178.255 43.1323L178.252 43.1701C178.179 44.0126 177.774 44.7485 177.179 45.2574C176.58 45.7681 175.791 46.0535 174.949 45.9916C174.935 45.9916 174.918 45.9899 174.904 45.9882C174.062 45.9159 173.326 45.5102 172.817 44.9153C172.301 44.3118 172.015 43.514 172.083 42.6629L172.248 40.6203C170.25 38.6224 157.379 25.7532 157.379 25.7532L155.336 25.9183C154.483 25.9836 153.686 25.6999 153.084 25.1841C152.482 24.6683 152.075 23.9238 152.009 23.0744C151.944 22.2216 152.228 21.4239 152.743 20.8221C153.259 20.2203 154.004 19.8128 154.853 19.7475L155.77 19.6735L155.752 19.1835H155.751V19.1595C155.733 18.3204 156.048 17.5536 156.579 16.9827C157.119 16.405 157.877 16.0319 158.73 16.0027H158.746V16.001H158.77C159.609 15.9804 160.376 16.2984 160.946 16.8297C161.524 17.3696 161.897 18.1278 161.927 18.9824L162.026 21.6405C163.845 23.463 174.54 34.1538 176.362 35.978L179.02 36.0778C179.873 36.1087 180.633 36.4801 181.171 37.0578C181.709 37.6355 182.027 38.4195 181.998 39.2723C181.967 40.1251 181.596 40.8851 181.018 41.4233C180.44 41.9614 179.656 42.2795 178.804 42.2503L178.331 42.2331L178.255 43.1323ZM172.579 39.7073L173.014 40.1423C173.102 40.23 173.152 40.3555 173.143 40.4896L172.963 42.7334C172.915 43.3438 173.119 43.9129 173.486 44.3427C173.853 44.7726 174.385 45.0631 174.993 45.1113C175.6 45.1594 176.171 44.9565 176.603 44.5903C177.027 44.2258 177.316 43.6997 177.37 43.0979L177.478 41.7431H177.48C177.497 41.5075 177.698 41.327 177.935 41.3356L178.831 41.37C179.44 41.3923 179.998 41.1636 180.411 40.7785C180.824 40.3934 181.092 39.8518 181.111 39.2448C181.133 38.6379 180.905 38.0774 180.519 37.6647C180.134 37.2521 179.593 36.9856 178.984 36.965L176.183 36.8584C176.065 36.8618 175.944 36.8205 175.853 36.7294L175.705 36.5815C173.853 34.7263 163.127 23.9977 161.273 22.1443L161.275 22.1425C161.199 22.0669 161.151 21.962 161.146 21.8451L161.039 19.0133C161.017 18.4064 160.752 17.8613 160.34 17.4796C159.934 17.0997 159.387 16.8762 158.79 16.8882C158.775 16.8899 158.758 16.8899 158.742 16.8899V16.8882C158.14 16.914 157.606 17.1788 157.222 17.588C156.846 17.9937 156.619 18.5405 156.631 19.1371C156.633 19.1526 156.633 19.1698 156.633 19.1853H156.631L156.665 20.0484C156.686 20.2908 156.502 20.5057 156.258 20.5229L154.92 20.6312C154.31 20.6794 153.778 20.9682 153.412 21.3998C153.043 21.8296 152.841 22.3987 152.89 23.0091C152.938 23.6195 153.227 24.1508 153.658 24.517C154.088 24.8849 154.659 25.0861 155.267 25.0414L157.496 24.8626C157.626 24.8471 157.761 24.8884 157.859 24.9898C159.807 26.9344 172.579 39.7073 172.579 39.7073Z" fill="black"/>
<path d="M172.579 39.7073L173.014 40.1423C173.102 40.23 173.152 40.3555 173.143 40.4896L172.963 42.7334C172.915 43.3438 173.119 43.9129 173.486 44.3427C173.853 44.7726 174.385 45.0631 174.993 45.1113C175.6 45.1594 176.171 44.9565 176.603 44.5903C177.027 44.2258 177.316 43.6997 177.37 43.0979L177.478 41.7431H177.48C177.497 41.5075 177.698 41.327 177.935 41.3356L178.831 41.37C179.44 41.3923 179.998 41.1636 180.411 40.7785C180.824 40.3934 181.092 39.8518 181.111 39.2448C181.133 38.6379 180.905 38.0774 180.519 37.6647C180.134 37.2521 179.593 36.9856 178.984 36.965L176.183 36.8584C176.065 36.8618 175.944 36.8205 175.853 36.7294L175.705 36.5815C173.853 34.7263 163.127 23.9977 161.273 22.1443L161.275 22.1425C161.199 22.0669 161.151 21.962 161.146 21.8451L161.039 19.0133C161.017 18.4064 160.752 17.8613 160.34 17.4796C159.934 17.0997 159.387 16.8762 158.79 16.8882C158.775 16.8899 158.758 16.8899 158.742 16.8899V16.8882C158.14 16.914 157.606 17.1788 157.222 17.588C156.846 17.9937 156.619 18.5405 156.631 19.1371C156.633 19.1526 156.633 19.1698 156.633 19.1853H156.631L156.665 20.0484C156.686 20.2908 156.502 20.5057 156.258 20.5229L154.92 20.6312C154.31 20.6794 153.778 20.9682 153.412 21.3998C153.043 21.8296 152.841 22.3987 152.89 23.0091C152.938 23.6195 153.227 24.1508 153.658 24.517C154.088 24.8849 154.659 25.0861 155.267 25.0414L157.496 24.8626C157.626 24.8471 157.761 24.8884 157.859 24.9898C159.807 26.9344 172.579 39.7073 172.579 39.7073Z" fill="black"/>
<path fill-rule="evenodd" clip-rule="evenodd" d="M154.868 42.2551L154.83 42.2517C153.988 42.1795 153.252 41.7737 152.743 41.1788C152.232 40.5804 151.947 39.7913 152.009 38.9488C152.009 38.935 152.01 38.9178 152.012 38.9041C152.084 38.0616 152.49 37.3257 153.085 36.8168C153.688 36.301 154.486 36.0155 155.337 36.0826L157.38 36.2477C159.378 34.2498 170.249 23.3767 172.247 21.3788L172.082 19.3362C172.016 18.4834 172.3 17.6856 172.816 17.0839C173.332 16.4821 174.076 16.0746 174.926 16.0093C175.778 15.9439 176.576 16.2276 177.178 16.7434C177.78 17.2592 178.187 18.0037 178.253 18.8531L178.327 19.7695L178.817 19.7523V19.7506H178.841C179.68 19.7334 180.446 20.048 181.017 20.5793C181.595 21.1192 181.968 21.8774 181.997 22.7302V22.7457H181.999V22.7698C182.02 23.6088 181.702 24.3757 181.17 24.9465C180.63 25.5242 179.872 25.8973 179.018 25.9265L176.36 26.0263C174.537 27.8453 163.846 38.5396 162.022 40.3621L161.922 43.0202C161.891 43.873 161.52 44.633 160.942 45.1711C160.365 45.7093 159.581 46.0274 158.728 45.9981C157.875 45.9672 157.115 45.5958 156.577 45.0181C156.039 44.4404 155.721 43.6564 155.75 42.8036L155.767 42.3307L154.868 42.2551ZM158.293 36.5795L157.858 37.0145C157.77 37.1022 157.645 37.152 157.51 37.1434L155.267 36.9629C154.656 36.9148 154.087 37.1194 153.657 37.4856C153.228 37.8535 152.937 38.3848 152.889 38.9935C152.841 39.6004 153.044 40.1712 153.41 40.6028C153.774 41.0275 154.3 41.3163 154.902 41.3696L156.257 41.478V41.4797C156.493 41.4969 156.673 41.698 156.665 41.9353L156.63 42.8311C156.608 43.4397 156.836 43.9985 157.222 44.4112C157.607 44.8238 158.148 45.092 158.755 45.111C159.362 45.1333 159.923 44.9046 160.335 44.5195C160.748 44.1344 161.015 43.5928 161.035 42.9841L161.142 40.1833C161.138 40.0646 161.18 39.9443 161.271 39.8531L161.419 39.7053C163.274 37.8535 174.002 27.1267 175.856 25.2732L175.858 25.2749C175.933 25.1992 176.038 25.1511 176.155 25.1459L178.987 25.0393C179.594 25.017 180.139 24.7522 180.52 24.3396C180.9 23.9338 181.124 23.387 181.112 22.7904C181.11 22.775 181.11 22.7578 181.11 22.7423H181.112C181.086 22.1405 180.821 21.6058 180.412 21.2224C180.006 20.8458 179.46 20.6189 178.863 20.6309C178.847 20.6326 178.83 20.6326 178.815 20.6326V20.6309L177.952 20.6653C177.709 20.6859 177.494 20.502 177.477 20.2578L177.369 18.9201C177.321 18.3098 177.032 17.7785 176.6 17.4123C176.17 17.0426 175.601 16.8414 174.991 16.8896C174.381 16.9377 173.849 17.2266 173.483 17.6581C173.115 18.088 172.914 18.6588 172.959 19.2675L173.137 21.4957C173.153 21.6264 173.112 21.7605 173.01 21.8585C171.066 23.8066 160.243 34.6315 158.293 36.5795Z" fill="black"/>
<path d="M158.293 36.5795L157.858 37.0145C157.77 37.1022 157.645 37.152 157.51 37.1434L155.267 36.9629C154.656 36.9148 154.087 37.1194 153.657 37.4856C153.228 37.8535 152.937 38.3848 152.889 38.9935C152.841 39.6004 153.044 40.1712 153.41 40.6028C153.774 41.0275 154.3 41.3163 154.902 41.3696L156.257 41.478V41.4797C156.493 41.4969 156.673 41.698 156.665 41.9353L156.63 42.8311C156.608 43.4397 156.836 43.9985 157.222 44.4112C157.607 44.8238 158.148 45.092 158.755 45.111C159.362 45.1333 159.923 44.9046 160.335 44.5195C160.748 44.1344 161.015 43.5928 161.035 42.9841L161.142 40.1833C161.138 40.0646 161.18 39.9443 161.271 39.8531L161.419 39.7053C163.274 37.8535 174.002 27.1267 175.856 25.2732L175.858 25.2749C175.933 25.1992 176.038 25.1511 176.155 25.1459L178.987 25.0393C179.594 25.017 180.139 24.7522 180.52 24.3396C180.9 23.9338 181.124 23.387 181.112 22.7904C181.11 22.775 181.11 22.7578 181.11 22.7423H181.112C181.086 22.1405 180.821 21.6058 180.412 21.2224C180.006 20.8458 179.46 20.6189 178.863 20.6309C178.847 20.6326 178.83 20.6326 178.815 20.6326V20.6309L177.952 20.6653C177.709 20.6859 177.494 20.502 177.477 20.2578L177.369 18.9201C177.321 18.3098 177.032 17.7785 176.6 17.4123C176.17 17.0426 175.601 16.8414 174.991 16.8896C174.381 16.9377 173.849 17.2266 173.483 17.6581C173.115 18.088 172.914 18.6588 172.959 19.2675L173.137 21.4957C173.153 21.6264 173.112 21.7605 173.01 21.8585C171.066 23.8066 160.243 34.6315 158.293 36.5795Z" fill="black"/>
<path d="M12.504 46C8.856 46 6.008 45.264 3.96 43.792C1.93333 42.32 0.664001 40.048 0.152001 36.976C0.0666678 36.0373 0.258668 35.3333 0.728001 34.864C1.19733 34.3947 1.88 34.16 2.776 34.16C3.672 34.16 4.32267 34.3733 4.728 34.8C5.15467 35.2267 5.44267 35.888 5.592 36.784C5.912 38.256 6.59467 39.2693 7.64 39.824C8.70667 40.3573 10.328 40.624 12.504 40.624H21.72C24.472 40.624 26.3387 40.1333 27.32 39.152C28.3227 38.1493 28.824 36.2933 28.824 33.584C28.824 30.832 28.312 28.9547 27.288 27.952C26.264 26.928 24.408 26.416 21.72 26.416H13.784C9.752 26.416 6.75467 25.4347 4.792 23.472C2.85067 21.488 1.88 18.48 1.88 14.448C1.88 10.4373 2.84 7.46133 4.76 5.52C6.70133 3.57866 9.688 2.608 13.72 2.608H21.336C24.728 2.608 27.384 3.30133 29.304 4.688C31.2453 6.07467 32.472 8.19733 32.984 11.056C33.112 11.9733 32.9413 12.6773 32.472 13.168C32.0027 13.6373 31.2987 13.872 30.36 13.872C29.5067 13.872 28.8667 13.648 28.44 13.2C28.0133 12.752 27.736 12.1013 27.608 11.248C27.2667 9.98933 26.616 9.136 25.656 8.688C24.696 8.21866 23.256 7.984 21.336 7.984H13.72C11.16 7.984 9.44267 8.44266 8.568 9.36C7.69333 10.256 7.256 11.952 7.256 14.448C7.256 16.9653 7.704 18.6933 8.6 19.632C9.496 20.5707 11.224 21.04 13.784 21.04H21.72C25.9227 21.04 29.048 22.064 31.096 24.112C33.1653 26.16 34.2 29.3173 34.2 33.584C34.2 37.8293 33.176 40.9653 31.128 42.992C29.08 44.9973 25.944 46 21.72 46H12.504Z" fill="black"/>
<path d="M48.6565 46C46.8645 46 45.9685 45.104 45.9685 43.312V3.632C45.9685 1.84 46.8645 0.943996 48.6565 0.943996C50.4485 0.943996 51.3445 1.84 51.3445 3.632V27.664L66.5765 14.576C67.9418 13.4027 69.2005 13.488 70.3525 14.832C71.5258 16.1973 71.4405 17.456 70.0965 18.608L58.4165 28.688L69.5845 41.392C70.7792 42.7787 70.7152 44.0373 69.3925 45.168C68.0272 46.3413 66.7472 46.256 65.5525 44.912L54.3205 32.24L51.3445 34.8V43.312C51.3445 45.104 50.4485 46 48.6565 46Z" fill="black"/>
<path d="M81.0585 31.984V33.52C81.0585 36.272 81.5598 38.1493 82.5625 39.152C83.5652 40.1333 85.4532 40.624 88.2265 40.624H93.4745C95.6505 40.624 97.2612 40.4213 98.3065 40.016C99.3518 39.6107 100.045 38.896 100.387 37.872C100.621 37.0613 100.941 36.4427 101.347 36.016C101.773 35.5893 102.413 35.376 103.267 35.376C104.163 35.376 104.845 35.6107 105.315 36.08C105.784 36.5493 105.933 37.232 105.763 38.128C105.293 40.7733 104.035 42.7467 101.987 44.048C99.9385 45.3493 97.1012 46 93.4745 46H88.2265C83.9812 46 80.8238 44.976 78.7545 42.928C76.7065 40.88 75.6825 37.744 75.6825 33.52V26.096C75.6825 21.7653 76.7065 18.5867 78.7545 16.56C80.8238 14.512 83.9812 13.5093 88.2265 13.552H93.4745C97.7412 13.552 100.899 14.576 102.947 16.624C104.995 18.6507 106.019 21.808 106.019 26.096V29.296C106.019 31.088 105.123 31.984 103.331 31.984H81.0585ZM88.2265 18.928C85.4532 18.8853 83.5652 19.3653 82.5625 20.368C81.5598 21.3707 81.0585 23.28 81.0585 26.096V26.608H100.643V26.096C100.643 23.3013 100.141 21.4133 99.1385 20.432C98.1572 19.4293 96.2692 18.928 93.4745 18.928H88.2265Z" fill="black"/>
<path d="M127.445 46C124.181 46 121.749 45.2 120.149 43.6C118.57 41.9787 117.781 39.536 117.781 36.272V3.632C117.781 1.84 118.677 0.943996 120.469 0.943996C122.261 0.943996 123.157 1.84 123.157 3.632V36.272C123.157 38 123.434 39.1627 123.989 39.76C124.565 40.336 125.717 40.624 127.445 40.624C129.28 40.624 130.197 41.52 130.197 43.312C130.261 45.104 129.344 46 127.445 46Z" fill="black"/>
<path d="M141.51 8.304C139.484 8.304 138.471 7.28 138.471 5.232V3.344C138.471 1.33867 139.484 0.335999 141.51 0.335999H143.367C145.308 0.335999 146.279 1.33867 146.279 3.344V5.232C146.279 7.28 145.308 8.304 143.367 8.304H141.51ZM142.406 46C140.614 46 139.719 45.104 139.719 43.312V16.24C139.719 14.448 140.614 13.552 142.406 13.552C144.198 13.552 145.094 14.448 145.094 16.24V43.312C145.094 45.104 144.198 46 142.406 46Z" fill="black"/>
<path fill-rule="evenodd" clip-rule="evenodd" d="M178.255 43.1323L178.252 43.1701C178.179 44.0126 177.774 44.7485 177.179 45.2574C176.58 45.7681 175.791 46.0535 174.949 45.9916C174.935 45.9916 174.918 45.9899 174.904 45.9882C174.062 45.9159 173.326 45.5102 172.817 44.9153C172.301 44.3118 172.015 43.514 172.083 42.6629L172.248 40.6203C170.25 38.6224 157.379 25.7532 157.379 25.7532L155.336 25.9183C154.483 25.9836 153.686 25.6999 153.084 25.1841C152.482 24.6683 152.075 23.9238 152.009 23.0744C151.944 22.2216 152.228 21.4239 152.743 20.8221C153.259 20.2203 154.004 19.8128 154.853 19.7475L155.77 19.6735L155.752 19.1835H155.751V19.1595C155.733 18.3204 156.048 17.5536 156.579 16.9827C157.119 16.405 157.877 16.0319 158.73 16.0027H158.746V16.001H158.77C159.609 15.9804 160.376 16.2984 160.946 16.8297C161.524 17.3696 161.897 18.1278 161.927 18.9824L162.026 21.6405C163.845 23.463 174.54 34.1538 176.362 35.978L179.02 36.0778C179.873 36.1087 180.633 36.4801 181.171 37.0578C181.709 37.6355 182.027 38.4195 181.998 39.2723C181.967 40.1251 181.596 40.8851 181.018 41.4233C180.44 41.9614 179.656 42.2795 178.804 42.2503L178.331 42.2331L178.255 43.1323ZM172.579 39.7073L173.014 40.1423C173.102 40.23 173.152 40.3555 173.143 40.4896L172.963 42.7334C172.915 43.3438 173.119 43.9129 173.486 44.3427C173.853 44.7726 174.385 45.0631 174.993 45.1113C175.6 45.1594 176.171 44.9565 176.603 44.5903C177.027 44.2258 177.316 43.6997 177.37 43.0979L177.478 41.7431H177.48C177.497 41.5075 177.698 41.327 177.935 41.3356L178.831 41.37C179.44 41.3923 179.998 41.1636 180.411 40.7785C180.824 40.3934 181.092 39.8518 181.111 39.2448C181.133 38.6379 180.905 38.0774 180.519 37.6647C180.134 37.2521 179.593 36.9856 178.984 36.965L176.183 36.8584C176.065 36.8618 175.944 36.8205 175.853 36.7294L175.705 36.5815C173.853 34.7263 163.127 23.9977 161.273 22.1443L161.275 22.1425C161.199 22.0669 161.151 21.962 161.146 21.8451L161.039 19.0133C161.017 18.4064 160.752 17.8613 160.34 17.4796C159.934 17.0997 159.387 16.8762 158.79 16.8882C158.775 16.8899 158.758 16.8899 158.742 16.8899V16.8882C158.14 16.914 157.606 17.1788 157.222 17.588C156.846 17.9937 156.619 18.5405 156.631 19.1371C156.633 19.1526 156.633 19.1698 156.633 19.1853H156.631L156.665 20.0484C156.686 20.2908 156.502 20.5057 156.258 20.5229L154.92 20.6312C154.31 20.6794 153.778 20.9682 153.412 21.3998C153.043 21.8296 152.841 22.3987 152.89 23.0091C152.938 23.6195 153.227 24.1508 153.658 24.517C154.088 24.8849 154.659 25.0861 155.267 25.0414L157.496 24.8626C157.626 24.8471 157.761 24.8884 157.859 24.9898C159.807 26.9344 172.579 39.7073 172.579 39.7073Z" stroke="black" stroke-width="6" mask="url(#path-1-inside-1_1_30)"/>
<path d="M172.579 39.7073L173.014 40.1423C173.102 40.23 173.152 40.3555 173.143 40.4896L172.963 42.7334C172.915 43.3438 173.119 43.9129 173.486 44.3427C173.853 44.7726 174.385 45.0631 174.993 45.1113C175.6 45.1594 176.171 44.9565 176.603 44.5903C177.027 44.2258 177.316 43.6997 177.37 43.0979L177.478 41.7431H177.48C177.497 41.5075 177.698 41.327 177.935 41.3356L178.831 41.37C179.44 41.3923 179.998 41.1636 180.411 40.7785C180.824 40.3934 181.092 39.8518 181.111 39.2448C181.133 38.6379 180.905 38.0774 180.519 37.6647C180.134 37.2521 179.593 36.9856 178.984 36.965L176.183 36.8584C176.065 36.8618 175.944 36.8205 175.853 36.7294L175.705 36.5815C173.853 34.7263 163.127 23.9977 161.273 22.1443L161.275 22.1425C161.199 22.0669 161.151 21.962 161.146 21.8451L161.039 19.0133C161.017 18.4064 160.752 17.8613 160.34 17.4796C159.934 17.0997 159.387 16.8762 158.79 16.8882C158.775 16.8899 158.758 16.8899 158.742 16.8899V16.8882C158.14 16.914 157.606 17.1788 157.222 17.588C156.846 17.9937 156.619 18.5405 156.631 19.1371C156.633 19.1526 156.633 19.1698 156.633 19.1853H156.631L156.665 20.0484C156.686 20.2908 156.502 20.5057 156.258 20.5229L154.92 20.6312C154.31 20.6794 153.778 20.9682 153.412 21.3998C153.043 21.8296 152.841 22.3987 152.89 23.0091C152.938 23.6195 153.227 24.1508 153.658 24.517C154.088 24.8849 154.659 25.0861 155.267 25.0414L157.496 24.8626C157.626 24.8471 157.761 24.8884 157.859 24.9898C159.807 26.9344 172.579 39.7073 172.579 39.7073Z" stroke="black" stroke-width="6" mask="url(#path-1-inside-1_1_30)"/>
<path fill-rule="evenodd" clip-rule="evenodd" d="M154.868 42.2551L154.83 42.2517C153.988 42.1795 153.252 41.7737 152.743 41.1788C152.232 40.5804 151.947 39.7913 152.009 38.9488C152.009 38.935 152.01 38.9178 152.012 38.9041C152.084 38.0616 152.49 37.3257 153.085 36.8168C153.688 36.301 154.486 36.0155 155.337 36.0826L157.38 36.2477C159.378 34.2498 170.249 23.3767 172.247 21.3788L172.082 19.3362C172.016 18.4834 172.3 17.6856 172.816 17.0839C173.332 16.4821 174.076 16.0746 174.926 16.0093C175.778 15.9439 176.576 16.2276 177.178 16.7434C177.78 17.2592 178.187 18.0037 178.253 18.8531L178.327 19.7695L178.817 19.7523V19.7506H178.841C179.68 19.7334 180.446 20.048 181.017 20.5793C181.595 21.1192 181.968 21.8774 181.997 22.7302V22.7457H181.999V22.7698C182.02 23.6088 181.702 24.3757 181.17 24.9465C180.63 25.5242 179.872 25.8973 179.018 25.9265L176.36 26.0263C174.537 27.8453 163.846 38.5396 162.022 40.3621L161.922 43.0202C161.891 43.873 161.52 44.633 160.942 45.1711C160.365 45.7093 159.581 46.0274 158.728 45.9981C157.875 45.9672 157.115 45.5958 156.577 45.0181C156.039 44.4404 155.721 43.6564 155.75 42.8036L155.767 42.3307L154.868 42.2551ZM158.293 36.5795L157.858 37.0145C157.77 37.1022 157.645 37.152 157.51 37.1434L155.267 36.9629C154.656 36.9148 154.087 37.1194 153.657 37.4856C153.228 37.8535 152.937 38.3848 152.889 38.9935C152.841 39.6004 153.044 40.1712 153.41 40.6028C153.774 41.0275 154.3 41.3163 154.902 41.3696L156.257 41.478V41.4797C156.493 41.4969 156.673 41.698 156.665 41.9353L156.63 42.8311C156.608 43.4397 156.836 43.9985 157.222 44.4112C157.607 44.8238 158.148 45.092 158.755 45.111C159.362 45.1333 159.923 44.9046 160.335 44.5195C160.748 44.1344 161.015 43.5928 161.035 42.9841L161.142 40.1833C161.138 40.0646 161.18 39.9443 161.271 39.8531L161.419 39.7053C163.274 37.8535 174.002 27.1267 175.856 25.2732L175.858 25.2749C175.933 25.1992 176.038 25.1511 176.155 25.1459L178.987 25.0393C179.594 25.017 180.139 24.7522 180.52 24.3396C180.9 23.9338 181.124 23.387 181.112 22.7904C181.11 22.775 181.11 22.7578 181.11 22.7423H181.112C181.086 22.1405 180.821 21.6058 180.412 21.2224C180.006 20.8458 179.46 20.6189 178.863 20.6309C178.847 20.6326 178.83 20.6326 178.815 20.6326V20.6309L177.952 20.6653C177.709 20.6859 177.494 20.502 177.477 20.2578L177.369 18.9201C177.321 18.3098 177.032 17.7785 176.6 17.4123C176.17 17.0426 175.601 16.8414 174.991 16.8896C174.381 16.9377 173.849 17.2266 173.483 17.6581C173.115 18.088 172.914 18.6588 172.959 19.2675L173.137 21.4957C173.153 21.6264 173.112 21.7605 173.01 21.8585C171.066 23.8066 160.243 34.6315 158.293 36.5795Z" stroke="black" stroke-width="6" mask="url(#path-1-inside-1_1_30)"/>
<path d="M158.293 36.5795L157.858 37.0145C157.77 37.1022 157.645 37.152 157.51 37.1434L155.267 36.9629C154.656 36.9148 154.087 37.1194 153.657 37.4856C153.228 37.8535 152.937 38.3848 152.889 38.9935C152.841 39.6004 153.044 40.1712 153.41 40.6028C153.774 41.0275 154.3 41.3163 154.902 41.3696L156.257 41.478V41.4797C156.493 41.4969 156.673 41.698 156.665 41.9353L156.63 42.8311C156.608 43.4397 156.836 43.9985 157.222 44.4112C157.607 44.8238 158.148 45.092 158.755 45.111C159.362 45.1333 159.923 44.9046 160.335 44.5195C160.748 44.1344 161.015 43.5928 161.035 42.9841L161.142 40.1833C161.138 40.0646 161.18 39.9443 161.271 39.8531L161.419 39.7053C163.274 37.8535 174.002 27.1267 175.856 25.2732L175.858 25.2749C175.933 25.1992 176.038 25.1511 176.155 25.1459L178.987 25.0393C179.594 25.017 180.139 24.7522 180.52 24.3396C180.9 23.9338 181.124 23.387 181.112 22.7904C181.11 22.775 181.11 22.7578 181.11 22.7423H181.112C181.086 22.1405 180.821 21.6058 180.412 21.2224C180.006 20.8458 179.46 20.6189 178.863 20.6309C178.847 20.6326 178.83 20.6326 178.815 20.6326V20.6309L177.952 20.6653C177.709 20.6859 177.494 20.502 177.477 20.2578L177.369 18.9201C177.321 18.3098 177.032 17.7785 176.6 17.4123C176.17 17.0426 175.601 16.8414 174.991 16.8896C174.381 16.9377 173.849 17.2266 173.483 17.6581C173.115 18.088 172.914 18.6588 172.959 19.2675L173.137 21.4957C173.153 21.6264 173.112 21.7605 173.01 21.8585C171.066 23.8066 160.243 34.6315 158.293 36.5795Z" stroke="black" stroke-width="6" mask="url(#path-1-inside-1_1_30)"/>
<path d="M12.504 46C8.856 46 6.008 45.264 3.96 43.792C1.93333 42.32 0.664001 40.048 0.152001 36.976C0.0666678 36.0373 0.258668 35.3333 0.728001 34.864C1.19733 34.3947 1.88 34.16 2.776 34.16C3.672 34.16 4.32267 34.3733 4.728 34.8C5.15467 35.2267 5.44267 35.888 5.592 36.784C5.912 38.256 6.59467 39.2693 7.64 39.824C8.70667 40.3573 10.328 40.624 12.504 40.624H21.72C24.472 40.624 26.3387 40.1333 27.32 39.152C28.3227 38.1493 28.824 36.2933 28.824 33.584C28.824 30.832 28.312 28.9547 27.288 27.952C26.264 26.928 24.408 26.416 21.72 26.416H13.784C9.752 26.416 6.75467 25.4347 4.792 23.472C2.85067 21.488 1.88 18.48 1.88 14.448C1.88 10.4373 2.84 7.46133 4.76 5.52C6.70133 3.57866 9.688 2.608 13.72 2.608H21.336C24.728 2.608 27.384 3.30133 29.304 4.688C31.2453 6.07467 32.472 8.19733 32.984 11.056C33.112 11.9733 32.9413 12.6773 32.472 13.168C32.0027 13.6373 31.2987 13.872 30.36 13.872C29.5067 13.872 28.8667 13.648 28.44 13.2C28.0133 12.752 27.736 12.1013 27.608 11.248C27.2667 9.98933 26.616 9.136 25.656 8.688C24.696 8.21866 23.256 7.984 21.336 7.984H13.72C11.16 7.984 9.44267 8.44266 8.568 9.36C7.69333 10.256 7.256 11.952 7.256 14.448C7.256 16.9653 7.704 18.6933 8.6 19.632C9.496 20.5707 11.224 21.04 13.784 21.04H21.72C25.9227 21.04 29.048 22.064 31.096 24.112C33.1653 26.16 34.2 29.3173 34.2 33.584C34.2 37.8293 33.176 40.9653 31.128 42.992C29.08 44.9973 25.944 46 21.72 46H12.504Z" stroke="black" stroke-width="6" mask="url(#path-1-inside-1_1_30)"/>
<path d="M48.6565 46C46.8645 46 45.9685 45.104 45.9685 43.312V3.632C45.9685 1.84 46.8645 0.943996 48.6565 0.943996C50.4485 0.943996 51.3445 1.84 51.3445 3.632V27.664L66.5765 14.576C67.9418 13.4027 69.2005 13.488 70.3525 14.832C71.5258 16.1973 71.4405 17.456 70.0965 18.608L58.4165 28.688L69.5845 41.392C70.7792 42.7787 70.7152 44.0373 69.3925 45.168C68.0272 46.3413 66.7472 46.256 65.5525 44.912L54.3205 32.24L51.3445 34.8V43.312C51.3445 45.104 50.4485 46 48.6565 46Z" stroke="black" stroke-width="6" mask="url(#path-1-inside-1_1_30)"/>
<path d="M81.0585 31.984V33.52C81.0585 36.272 81.5598 38.1493 82.5625 39.152C83.5652 40.1333 85.4532 40.624 88.2265 40.624H93.4745C95.6505 40.624 97.2612 40.4213 98.3065 40.016C99.3518 39.6107 100.045 38.896 100.387 37.872C100.621 37.0613 100.941 36.4427 101.347 36.016C101.773 35.5893 102.413 35.376 103.267 35.376C104.163 35.376 104.845 35.6107 105.315 36.08C105.784 36.5493 105.933 37.232 105.763 38.128C105.293 40.7733 104.035 42.7467 101.987 44.048C99.9385 45.3493 97.1012 46 93.4745 46H88.2265C83.9812 46 80.8238 44.976 78.7545 42.928C76.7065 40.88 75.6825 37.744 75.6825 33.52V26.096C75.6825 21.7653 76.7065 18.5867 78.7545 16.56C80.8238 14.512 83.9812 13.5093 88.2265 13.552H93.4745C97.7412 13.552 100.899 14.576 102.947 16.624C104.995 18.6507 106.019 21.808 106.019 26.096V29.296C106.019 31.088 105.123 31.984 103.331 31.984H81.0585ZM88.2265 18.928C85.4532 18.8853 83.5652 19.3653 82.5625 20.368C81.5598 21.3707 81.0585 23.28 81.0585 26.096V26.608H100.643V26.096C100.643 23.3013 100.141 21.4133 99.1385 20.432C98.1572 19.4293 96.2692 18.928 93.4745 18.928H88.2265Z" stroke="black" stroke-width="6" mask="url(#path-1-inside-1_1_30)"/>
<path d="M127.445 46C124.181 46 121.749 45.2 120.149 43.6C118.57 41.9787 117.781 39.536 117.781 36.272V3.632C117.781 1.84 118.677 0.943996 120.469 0.943996C122.261 0.943996 123.157 1.84 123.157 3.632V36.272C123.157 38 123.434 39.1627 123.989 39.76C124.565 40.336 125.717 40.624 127.445 40.624C129.28 40.624 130.197 41.52 130.197 43.312C130.261 45.104 129.344 46 127.445 46Z" stroke="black" stroke-width="6" mask="url(#path-1-inside-1_1_30)"/>
<path d="M141.51 8.304C139.484 8.304 138.471 7.28 138.471 5.232V3.344C138.471 1.33867 139.484 0.335999 141.51 0.335999H143.367C145.308 0.335999 146.279 1.33867 146.279 3.344V5.232C146.279 7.28 145.308 8.304 143.367 8.304H141.51ZM142.406 46C140.614 46 139.719 45.104 139.719 43.312V16.24C139.719 14.448 140.614 13.552 142.406 13.552C144.198 13.552 145.094 14.448 145.094 16.24V43.312C145.094 45.104 144.198 46 142.406 46Z" stroke="black" stroke-width="6" mask="url(#path-1-inside-1_1_30)"/>
</svg>
